# xmcd
# 
# Track frame offsets:
#     150
#     17709
#     33806
#     48272
#     65980
#     79694
#     96269
#     115499
#     131324
#     149068
#     167177
#     182036
#     194470
#     219196
# 
# Disc length: 3088
# 
# Revision: 0
# Processed by: cddbd v1.5.2PL0 Copyright (c) Steve Scherf et al.
# Submitted via: fre:ac v1.0.17
# 
DISCID=c90c0e0e
DTITLE=Various Artist - Apres_Ski_Party Vol2
DYEAR=0
DGENRE=
TTITLE0=Mellymaus and Friends - Que Sera Sera
TTITLE1=Stadlrock - Do Wah Diddy Diddy
TTITLE2=Die Partykracher - Country Roads
TTITLE3=Mellymaus  - 20 CM
TTITLE4=Partysanen - Hebt Die Ärsche In Die Höh
TTITLE5=Der Macho - Es Ist Geil Ein Arschloch Zu Sein
TTITLE6=Stadlrock - My Bonnie Is Over The Ocean
TTITLE7=Marion und die Partyband - Er Hat Ein Knallrotes Gummiboot
TTITLE8=Stadlrock - Pistensau
TTITLE9=Saft-Säcke - Fressen Und Saufen
TTITLE10=Seer - 3Täg
TTITLE11=Klostertaler - Marmor Stein Und Eisen Bricht
TTITLE12=Schürzenjäger - Rock-Potpourri
TTITLE13=Gletscher Fezzzer - Und Tschüss
EXTD=
EXTT0=
EXTT1=
EXTT2=
EXTT3=
EXTT4=
EXTT5=
EXTT6=
EXTT7=
EXTT8=
EXTT9=
EXTT10=
EXTT11=
EXTT12=
EXTT13=
PLAYORDER=
